<mxfile host="Electron" modified="2024-05-16T17:29:59.253Z" agent="Mozilla/5.0 (Windows NT 10.0; Win64; x64) AppleWebKit/537.36 (KHTML, like Gecko) draw.io/24.2.5 Chrome/120.0.6099.109 Electron/28.1.0 Safari/537.36" etag="p2VQaCDHmXY99KLgO7nK" version="24.2.5" type="device" pages="6">
  <diagram name="premier test" id="BYRX8UyV6opKhag1Lmcs">
    <mxGraphModel dx="757" dy="492" grid="1" gridSize="10" guides="1" tooltips="1" connect="1" arrows="1" fold="1" page="1" pageScale="1" pageWidth="827" pageHeight="1169" math="0" shadow="0">
      <root>
        <mxCell id="0" />
        <mxCell id="1" parent="0" />
        <mxCell id="Iyfu9xB4HT_4LMB3a3-U-1" value="Client" style="shape=umlActor;verticalLabelPosition=bottom;verticalAlign=top;html=1;outlineConnect=0;" parent="1" vertex="1">
          <mxGeometry x="399" y="30" width="30" height="60" as="geometry" />
        </mxCell>
        <mxCell id="Iyfu9xB4HT_4LMB3a3-U-6" value="Seul" style="ellipse;whiteSpace=wrap;html=1;align=center;newEdgeStyle={&quot;edgeStyle&quot;:&quot;entityRelationEdgeStyle&quot;,&quot;startArrow&quot;:&quot;none&quot;,&quot;endArrow&quot;:&quot;none&quot;,&quot;segment&quot;:10,&quot;curved&quot;:1,&quot;sourcePerimeterSpacing&quot;:0,&quot;targetPerimeterSpacing&quot;:0};treeFolding=1;treeMoving=1;" parent="1" vertex="1">
          <mxGeometry x="270" y="160" width="100" height="40" as="geometry" />
        </mxCell>
        <mxCell id="Iyfu9xB4HT_4LMB3a3-U-7" value="En équipes" style="ellipse;whiteSpace=wrap;html=1;align=center;newEdgeStyle={&quot;edgeStyle&quot;:&quot;entityRelationEdgeStyle&quot;,&quot;startArrow&quot;:&quot;none&quot;,&quot;endArrow&quot;:&quot;none&quot;,&quot;segment&quot;:10,&quot;curved&quot;:1,&quot;sourcePerimeterSpacing&quot;:0,&quot;targetPerimeterSpacing&quot;:0};treeFolding=1;treeMoving=1;" parent="1" vertex="1">
          <mxGeometry x="460" y="160" width="100" height="40" as="geometry" />
        </mxCell>
        <mxCell id="Iyfu9xB4HT_4LMB3a3-U-13" value="" style="edgeStyle=elbowEdgeStyle;elbow=vertical;endArrow=classic;html=1;curved=0;rounded=0;endSize=8;startSize=8;exitX=0.5;exitY=1;exitDx=0;exitDy=0;" parent="1" source="Iyfu9xB4HT_4LMB3a3-U-6" edge="1">
          <mxGeometry width="50" height="50" relative="1" as="geometry">
            <mxPoint x="340" y="200" as="sourcePoint" />
            <mxPoint x="220" y="220" as="targetPoint" />
          </mxGeometry>
        </mxCell>
        <mxCell id="Iyfu9xB4HT_4LMB3a3-U-15" value="" style="edgeStyle=elbowEdgeStyle;elbow=vertical;endArrow=classic;html=1;curved=0;rounded=0;endSize=8;startSize=8;exitX=0.5;exitY=1;exitDx=0;exitDy=0;" parent="1" source="Iyfu9xB4HT_4LMB3a3-U-7" edge="1">
          <mxGeometry width="50" height="50" relative="1" as="geometry">
            <mxPoint x="480" y="200" as="sourcePoint" />
            <mxPoint x="640" y="220" as="targetPoint" />
          </mxGeometry>
        </mxCell>
        <UserObject label="Créer un projet" treeRoot="1" id="Iyfu9xB4HT_4LMB3a3-U-16">
          <mxCell style="whiteSpace=wrap;html=1;align=center;treeFolding=1;treeMoving=1;newEdgeStyle={&quot;edgeStyle&quot;:&quot;elbowEdgeStyle&quot;,&quot;startArrow&quot;:&quot;none&quot;,&quot;endArrow&quot;:&quot;none&quot;};" parent="1" vertex="1">
            <mxGeometry x="160" y="220" width="120" height="60" as="geometry" />
          </mxCell>
        </UserObject>
        <UserObject label="Définitions des ressources pour la réalisation du projet" treeRoot="1" id="Iyfu9xB4HT_4LMB3a3-U-17">
          <mxCell style="whiteSpace=wrap;html=1;align=center;treeFolding=1;treeMoving=1;newEdgeStyle={&quot;edgeStyle&quot;:&quot;elbowEdgeStyle&quot;,&quot;startArrow&quot;:&quot;none&quot;,&quot;endArrow&quot;:&quot;none&quot;};" parent="1" vertex="1">
            <mxGeometry x="160" y="320" width="120" height="60" as="geometry" />
          </mxCell>
        </UserObject>
        <mxCell id="Iyfu9xB4HT_4LMB3a3-U-20" value="" style="shape=singleArrow;direction=south;whiteSpace=wrap;html=1;" parent="1" vertex="1">
          <mxGeometry x="190" y="280" width="60" height="40" as="geometry" />
        </mxCell>
        <UserObject label="gestionnaires d&#39;equipes" treeRoot="1" id="Iyfu9xB4HT_4LMB3a3-U-21">
          <mxCell style="whiteSpace=wrap;html=1;align=center;treeFolding=1;treeMoving=1;newEdgeStyle={&quot;edgeStyle&quot;:&quot;elbowEdgeStyle&quot;,&quot;startArrow&quot;:&quot;none&quot;,&quot;endArrow&quot;:&quot;none&quot;};" parent="1" vertex="1">
            <mxGeometry x="490" y="230" width="120" height="60" as="geometry" />
          </mxCell>
        </UserObject>
        <UserObject label="membre d&#39;une équipes" treeRoot="1" id="Iyfu9xB4HT_4LMB3a3-U-22">
          <mxCell style="whiteSpace=wrap;html=1;align=center;treeFolding=1;treeMoving=1;newEdgeStyle={&quot;edgeStyle&quot;:&quot;elbowEdgeStyle&quot;,&quot;startArrow&quot;:&quot;none&quot;,&quot;endArrow&quot;:&quot;none&quot;};" parent="1" vertex="1">
            <mxGeometry x="660" y="230" width="120" height="60" as="geometry" />
          </mxCell>
        </UserObject>
        <mxCell id="Iyfu9xB4HT_4LMB3a3-U-23" value="" style="shape=singleArrow;direction=south;whiteSpace=wrap;html=1;" parent="1" vertex="1">
          <mxGeometry x="190" y="380" width="60" height="40" as="geometry" />
        </mxCell>
        <UserObject label="Creations des taches" treeRoot="1" id="Iyfu9xB4HT_4LMB3a3-U-24">
          <mxCell style="whiteSpace=wrap;html=1;align=center;treeFolding=1;treeMoving=1;newEdgeStyle={&quot;edgeStyle&quot;:&quot;elbowEdgeStyle&quot;,&quot;startArrow&quot;:&quot;none&quot;,&quot;endArrow&quot;:&quot;none&quot;};" parent="1" vertex="1">
            <mxGeometry x="160" y="420" width="120" height="60" as="geometry" />
          </mxCell>
        </UserObject>
        <UserObject label="Créations des sous taches" treeRoot="1" id="Iyfu9xB4HT_4LMB3a3-U-25">
          <mxCell style="whiteSpace=wrap;html=1;align=center;treeFolding=1;treeMoving=1;newEdgeStyle={&quot;edgeStyle&quot;:&quot;elbowEdgeStyle&quot;,&quot;startArrow&quot;:&quot;none&quot;,&quot;endArrow&quot;:&quot;none&quot;};" parent="1" vertex="1">
            <mxGeometry x="160" y="520" width="120" height="60" as="geometry" />
          </mxCell>
        </UserObject>
        <mxCell id="Iyfu9xB4HT_4LMB3a3-U-26" value="" style="shape=singleArrow;direction=south;whiteSpace=wrap;html=1;" parent="1" vertex="1">
          <mxGeometry x="190" y="480" width="60" height="40" as="geometry" />
        </mxCell>
        <UserObject label="définitions des prioritées" treeRoot="1" id="Iyfu9xB4HT_4LMB3a3-U-27">
          <mxCell style="whiteSpace=wrap;html=1;align=center;treeFolding=1;treeMoving=1;newEdgeStyle={&quot;edgeStyle&quot;:&quot;elbowEdgeStyle&quot;,&quot;startArrow&quot;:&quot;none&quot;,&quot;endArrow&quot;:&quot;none&quot;};" parent="1" vertex="1">
            <mxGeometry x="160" y="620" width="120" height="60" as="geometry" />
          </mxCell>
        </UserObject>
        <mxCell id="Iyfu9xB4HT_4LMB3a3-U-28" value="" style="shape=singleArrow;direction=south;whiteSpace=wrap;html=1;" parent="1" vertex="1">
          <mxGeometry x="190" y="580" width="60" height="40" as="geometry" />
        </mxCell>
      </root>
    </mxGraphModel>
  </diagram>
  <diagram id="rDEyEfFy6dP8LyIYheRn" name="seul">
    <mxGraphModel dx="1584" dy="492" grid="1" gridSize="10" guides="1" tooltips="1" connect="1" arrows="1" fold="1" page="1" pageScale="1" pageWidth="827" pageHeight="1169" math="0" shadow="0">
      <root>
        <mxCell id="0" />
        <mxCell id="1" parent="0" />
        <mxCell id="FbnF2qm33XC1SbRXRIoK-4" value="" style="swimlane;startSize=20;horizontal=1;containerType=tree;newEdgeStyle={&quot;edgeStyle&quot;:&quot;elbowEdgeStyle&quot;,&quot;startArrow&quot;:&quot;none&quot;,&quot;endArrow&quot;:&quot;none&quot;};" parent="1" vertex="1">
          <mxGeometry x="-140" y="169" width="1180" height="1000" as="geometry" />
        </mxCell>
        <mxCell id="FbnF2qm33XC1SbRXRIoK-5" value="" style="edgeStyle=elbowEdgeStyle;elbow=vertical;sourcePerimeterSpacing=0;targetPerimeterSpacing=0;startArrow=none;endArrow=none;rounded=0;curved=0;" parent="FbnF2qm33XC1SbRXRIoK-4" source="FbnF2qm33XC1SbRXRIoK-7" target="FbnF2qm33XC1SbRXRIoK-8" edge="1">
          <mxGeometry relative="1" as="geometry" />
        </mxCell>
        <UserObject label="Client" treeRoot="1" id="FbnF2qm33XC1SbRXRIoK-7">
          <mxCell style="whiteSpace=wrap;html=1;align=center;treeFolding=1;treeMoving=1;newEdgeStyle={&quot;edgeStyle&quot;:&quot;elbowEdgeStyle&quot;,&quot;startArrow&quot;:&quot;none&quot;,&quot;endArrow&quot;:&quot;none&quot;};" parent="FbnF2qm33XC1SbRXRIoK-4" vertex="1">
            <mxGeometry x="530" y="50" width="120" height="60" as="geometry" />
          </mxCell>
        </UserObject>
        <mxCell id="FbnF2qm33XC1SbRXRIoK-8" value="Seul" style="whiteSpace=wrap;html=1;align=center;verticalAlign=middle;treeFolding=1;treeMoving=1;newEdgeStyle={&quot;edgeStyle&quot;:&quot;elbowEdgeStyle&quot;,&quot;startArrow&quot;:&quot;none&quot;,&quot;endArrow&quot;:&quot;none&quot;};" parent="FbnF2qm33XC1SbRXRIoK-4" vertex="1">
          <mxGeometry x="540" y="171" width="100" height="60" as="geometry" />
        </mxCell>
        <mxCell id="FbnF2qm33XC1SbRXRIoK-13" value="" style="edgeStyle=elbowEdgeStyle;elbow=vertical;sourcePerimeterSpacing=0;targetPerimeterSpacing=0;startArrow=none;endArrow=none;rounded=0;curved=0;" parent="FbnF2qm33XC1SbRXRIoK-4" source="FbnF2qm33XC1SbRXRIoK-8" target="FbnF2qm33XC1SbRXRIoK-14" edge="1">
          <mxGeometry relative="1" as="geometry">
            <mxPoint x="410" y="220" as="sourcePoint" />
          </mxGeometry>
        </mxCell>
        <mxCell id="FbnF2qm33XC1SbRXRIoK-14" value="Crée un projet" style="whiteSpace=wrap;html=1;align=center;verticalAlign=middle;treeFolding=1;treeMoving=1;newEdgeStyle={&quot;edgeStyle&quot;:&quot;elbowEdgeStyle&quot;,&quot;startArrow&quot;:&quot;none&quot;,&quot;endArrow&quot;:&quot;none&quot;};" parent="FbnF2qm33XC1SbRXRIoK-4" vertex="1">
          <mxGeometry x="20" y="261" width="100" height="89" as="geometry" />
        </mxCell>
        <mxCell id="FbnF2qm33XC1SbRXRIoK-2" value="" style="shape=umlActor;verticalLabelPosition=bottom;verticalAlign=top;html=1;outlineConnect=0;" parent="FbnF2qm33XC1SbRXRIoK-4" vertex="1">
          <mxGeometry x="570" y="-10" width="30" height="60" as="geometry" />
        </mxCell>
        <mxCell id="GBSJzxvQuTlD-Dh8xCkO-5" style="edgeStyle=elbowEdgeStyle;rounded=0;orthogonalLoop=1;jettySize=auto;html=1;startArrow=none;endArrow=none;" parent="FbnF2qm33XC1SbRXRIoK-4" edge="1">
          <mxGeometry relative="1" as="geometry">
            <mxPoint x="180" y="820" as="targetPoint" />
            <mxPoint x="180.41176470588243" y="820" as="sourcePoint" />
          </mxGeometry>
        </mxCell>
        <mxCell id="GBSJzxvQuTlD-Dh8xCkO-26" value="" style="edgeStyle=elbowEdgeStyle;elbow=vertical;sourcePerimeterSpacing=0;targetPerimeterSpacing=0;startArrow=none;endArrow=none;rounded=0;curved=0;" parent="FbnF2qm33XC1SbRXRIoK-4" source="FbnF2qm33XC1SbRXRIoK-8" target="GBSJzxvQuTlD-Dh8xCkO-27" edge="1">
          <mxGeometry relative="1" as="geometry">
            <mxPoint x="350" y="300" as="sourcePoint" />
          </mxGeometry>
        </mxCell>
        <mxCell id="GBSJzxvQuTlD-Dh8xCkO-27" value="creer une taches" style="whiteSpace=wrap;html=1;align=center;verticalAlign=middle;treeFolding=1;treeMoving=1;newEdgeStyle={&quot;edgeStyle&quot;:&quot;elbowEdgeStyle&quot;,&quot;startArrow&quot;:&quot;none&quot;,&quot;endArrow&quot;:&quot;none&quot;};" parent="FbnF2qm33XC1SbRXRIoK-4" vertex="1">
          <mxGeometry x="170" y="261" width="100" height="89" as="geometry" />
        </mxCell>
        <mxCell id="GBSJzxvQuTlD-Dh8xCkO-28" value="" style="edgeStyle=elbowEdgeStyle;elbow=vertical;sourcePerimeterSpacing=0;targetPerimeterSpacing=0;startArrow=none;endArrow=none;rounded=0;curved=0;" parent="FbnF2qm33XC1SbRXRIoK-4" source="FbnF2qm33XC1SbRXRIoK-8" target="GBSJzxvQuTlD-Dh8xCkO-29" edge="1">
          <mxGeometry relative="1" as="geometry">
            <mxPoint x="350" y="300" as="sourcePoint" />
          </mxGeometry>
        </mxCell>
        <mxCell id="GBSJzxvQuTlD-Dh8xCkO-29" value="&lt;div&gt;Gérer une date&amp;nbsp;&lt;/div&gt;&lt;div&gt;échances&lt;/div&gt;" style="whiteSpace=wrap;html=1;align=center;verticalAlign=middle;treeFolding=1;treeMoving=1;newEdgeStyle={&quot;edgeStyle&quot;:&quot;elbowEdgeStyle&quot;,&quot;startArrow&quot;:&quot;none&quot;,&quot;endArrow&quot;:&quot;none&quot;};" parent="FbnF2qm33XC1SbRXRIoK-4" vertex="1">
          <mxGeometry x="330" y="260" width="100" height="90" as="geometry" />
        </mxCell>
        <mxCell id="GBSJzxvQuTlD-Dh8xCkO-30" value="" style="edgeStyle=elbowEdgeStyle;elbow=vertical;sourcePerimeterSpacing=0;targetPerimeterSpacing=0;startArrow=none;endArrow=none;rounded=0;curved=0;" parent="FbnF2qm33XC1SbRXRIoK-4" source="FbnF2qm33XC1SbRXRIoK-8" target="GBSJzxvQuTlD-Dh8xCkO-31" edge="1">
          <mxGeometry relative="1" as="geometry">
            <mxPoint x="350" y="300" as="sourcePoint" />
          </mxGeometry>
        </mxCell>
        <mxCell id="GBSJzxvQuTlD-Dh8xCkO-31" value="&lt;div&gt;attribuer des priorités&lt;/div&gt;" style="whiteSpace=wrap;html=1;align=center;verticalAlign=middle;treeFolding=1;treeMoving=1;newEdgeStyle={&quot;edgeStyle&quot;:&quot;elbowEdgeStyle&quot;,&quot;startArrow&quot;:&quot;none&quot;,&quot;endArrow&quot;:&quot;none&quot;};" parent="FbnF2qm33XC1SbRXRIoK-4" vertex="1">
          <mxGeometry x="460" y="261" width="100" height="89" as="geometry" />
        </mxCell>
        <mxCell id="GBSJzxvQuTlD-Dh8xCkO-32" value="" style="edgeStyle=elbowEdgeStyle;elbow=vertical;sourcePerimeterSpacing=0;targetPerimeterSpacing=0;startArrow=none;endArrow=none;rounded=0;curved=0;" parent="FbnF2qm33XC1SbRXRIoK-4" source="FbnF2qm33XC1SbRXRIoK-8" target="GBSJzxvQuTlD-Dh8xCkO-33" edge="1">
          <mxGeometry relative="1" as="geometry">
            <mxPoint x="350" y="300" as="sourcePoint" />
          </mxGeometry>
        </mxCell>
        <mxCell id="GBSJzxvQuTlD-Dh8xCkO-33" value="&lt;div&gt;assignés des projets&lt;/div&gt;" style="whiteSpace=wrap;html=1;align=center;verticalAlign=middle;treeFolding=1;treeMoving=1;newEdgeStyle={&quot;edgeStyle&quot;:&quot;elbowEdgeStyle&quot;,&quot;startArrow&quot;:&quot;none&quot;,&quot;endArrow&quot;:&quot;none&quot;};direction=west;" parent="FbnF2qm33XC1SbRXRIoK-4" vertex="1">
          <mxGeometry x="590" y="261" width="100" height="89" as="geometry" />
        </mxCell>
        <mxCell id="GBSJzxvQuTlD-Dh8xCkO-34" value="" style="edgeStyle=elbowEdgeStyle;elbow=vertical;sourcePerimeterSpacing=0;targetPerimeterSpacing=0;startArrow=none;endArrow=none;rounded=0;curved=0;" parent="FbnF2qm33XC1SbRXRIoK-4" source="FbnF2qm33XC1SbRXRIoK-8" target="GBSJzxvQuTlD-Dh8xCkO-35" edge="1">
          <mxGeometry relative="1" as="geometry">
            <mxPoint x="350" y="300" as="sourcePoint" />
          </mxGeometry>
        </mxCell>
        <mxCell id="GBSJzxvQuTlD-Dh8xCkO-35" value="gérer la taches" style="whiteSpace=wrap;html=1;align=center;verticalAlign=middle;treeFolding=1;treeMoving=1;newEdgeStyle={&quot;edgeStyle&quot;:&quot;elbowEdgeStyle&quot;,&quot;startArrow&quot;:&quot;none&quot;,&quot;endArrow&quot;:&quot;none&quot;};" parent="FbnF2qm33XC1SbRXRIoK-4" vertex="1">
          <mxGeometry x="710" y="261" width="100" height="89" as="geometry" />
        </mxCell>
        <mxCell id="GBSJzxvQuTlD-Dh8xCkO-39" value="" style="edgeStyle=elbowEdgeStyle;elbow=vertical;sourcePerimeterSpacing=0;targetPerimeterSpacing=0;startArrow=none;endArrow=none;rounded=0;curved=0;" parent="FbnF2qm33XC1SbRXRIoK-4" source="FbnF2qm33XC1SbRXRIoK-8" target="GBSJzxvQuTlD-Dh8xCkO-40" edge="1">
          <mxGeometry relative="1" as="geometry">
            <mxPoint x="340" y="290" as="sourcePoint" />
          </mxGeometry>
        </mxCell>
        <mxCell id="GBSJzxvQuTlD-Dh8xCkO-40" value="disposé d un tableau de bord des projets" style="whiteSpace=wrap;html=1;align=center;verticalAlign=middle;treeFolding=1;treeMoving=1;newEdgeStyle={&quot;edgeStyle&quot;:&quot;elbowEdgeStyle&quot;,&quot;startArrow&quot;:&quot;none&quot;,&quot;endArrow&quot;:&quot;none&quot;};" parent="FbnF2qm33XC1SbRXRIoK-4" vertex="1">
          <mxGeometry x="820" y="260" width="110" height="90" as="geometry" />
        </mxCell>
        <mxCell id="mq6MrCIV2iRebGUDolaT-3" value="&lt;div&gt;&lt;br&gt;&lt;/div&gt;" style="text;html=1;align=center;verticalAlign=middle;whiteSpace=wrap;rounded=0;fontFamily=Helvetica;fontSize=12;fontColor=default;" parent="FbnF2qm33XC1SbRXRIoK-4" vertex="1">
          <mxGeometry x="350" y="400" width="60" height="30" as="geometry" />
        </mxCell>
        <mxCell id="mTa8yyf2tj54cFKZ3vY1-1" value="" style="edgeStyle=elbowEdgeStyle;elbow=vertical;sourcePerimeterSpacing=0;targetPerimeterSpacing=0;startArrow=none;endArrow=none;rounded=0;curved=0;" parent="FbnF2qm33XC1SbRXRIoK-4" source="GBSJzxvQuTlD-Dh8xCkO-27" target="mTa8yyf2tj54cFKZ3vY1-2" edge="1">
          <mxGeometry relative="1" as="geometry">
            <mxPoint x="450" y="400" as="sourcePoint" />
          </mxGeometry>
        </mxCell>
        <mxCell id="mTa8yyf2tj54cFKZ3vY1-2" value="ajout" style="whiteSpace=wrap;html=1;align=center;verticalAlign=middle;treeFolding=1;treeMoving=1;newEdgeStyle={&quot;edgeStyle&quot;:&quot;elbowEdgeStyle&quot;,&quot;startArrow&quot;:&quot;none&quot;,&quot;endArrow&quot;:&quot;none&quot;};" parent="FbnF2qm33XC1SbRXRIoK-4" vertex="1">
          <mxGeometry x="170" y="390" width="100" height="89" as="geometry" />
        </mxCell>
        <mxCell id="mTa8yyf2tj54cFKZ3vY1-3" value="" style="edgeStyle=elbowEdgeStyle;elbow=vertical;sourcePerimeterSpacing=0;targetPerimeterSpacing=0;startArrow=none;endArrow=none;rounded=0;curved=0;" parent="FbnF2qm33XC1SbRXRIoK-4" source="mTa8yyf2tj54cFKZ3vY1-2" target="mTa8yyf2tj54cFKZ3vY1-4" edge="1">
          <mxGeometry relative="1" as="geometry">
            <mxPoint x="80" y="519" as="sourcePoint" />
          </mxGeometry>
        </mxCell>
        <mxCell id="mTa8yyf2tj54cFKZ3vY1-4" value="suprimer" style="whiteSpace=wrap;html=1;align=center;verticalAlign=middle;treeFolding=1;treeMoving=1;newEdgeStyle={&quot;edgeStyle&quot;:&quot;elbowEdgeStyle&quot;,&quot;startArrow&quot;:&quot;none&quot;,&quot;endArrow&quot;:&quot;none&quot;};" parent="FbnF2qm33XC1SbRXRIoK-4" vertex="1">
          <mxGeometry x="170" y="519" width="100" height="89" as="geometry" />
        </mxCell>
        <mxCell id="mTa8yyf2tj54cFKZ3vY1-5" value="" style="edgeStyle=elbowEdgeStyle;elbow=vertical;sourcePerimeterSpacing=0;targetPerimeterSpacing=0;startArrow=none;endArrow=none;rounded=0;curved=0;" parent="FbnF2qm33XC1SbRXRIoK-4" source="mTa8yyf2tj54cFKZ3vY1-4" target="mTa8yyf2tj54cFKZ3vY1-6" edge="1">
          <mxGeometry relative="1" as="geometry">
            <mxPoint x="80" y="648" as="sourcePoint" />
          </mxGeometry>
        </mxCell>
        <mxCell id="mTa8yyf2tj54cFKZ3vY1-6" value="modifier" style="whiteSpace=wrap;html=1;align=center;verticalAlign=middle;treeFolding=1;treeMoving=1;newEdgeStyle={&quot;edgeStyle&quot;:&quot;elbowEdgeStyle&quot;,&quot;startArrow&quot;:&quot;none&quot;,&quot;endArrow&quot;:&quot;none&quot;};" parent="FbnF2qm33XC1SbRXRIoK-4" vertex="1">
          <mxGeometry x="170" y="648" width="100" height="89" as="geometry" />
        </mxCell>
        <mxCell id="mTa8yyf2tj54cFKZ3vY1-7" value="" style="edgeStyle=elbowEdgeStyle;elbow=vertical;sourcePerimeterSpacing=0;targetPerimeterSpacing=0;startArrow=none;endArrow=none;rounded=0;curved=0;" parent="FbnF2qm33XC1SbRXRIoK-4" source="FbnF2qm33XC1SbRXRIoK-14" target="mTa8yyf2tj54cFKZ3vY1-8" edge="1">
          <mxGeometry relative="1" as="geometry">
            <mxPoint x="450" y="400" as="sourcePoint" />
          </mxGeometry>
        </mxCell>
        <mxCell id="mTa8yyf2tj54cFKZ3vY1-8" value="ajout" style="whiteSpace=wrap;html=1;align=center;verticalAlign=middle;treeFolding=1;treeMoving=1;newEdgeStyle={&quot;edgeStyle&quot;:&quot;elbowEdgeStyle&quot;,&quot;startArrow&quot;:&quot;none&quot;,&quot;endArrow&quot;:&quot;none&quot;};" parent="FbnF2qm33XC1SbRXRIoK-4" vertex="1">
          <mxGeometry x="20" y="390" width="100" height="89" as="geometry" />
        </mxCell>
        <mxCell id="mTa8yyf2tj54cFKZ3vY1-9" value="" style="edgeStyle=elbowEdgeStyle;elbow=vertical;sourcePerimeterSpacing=0;targetPerimeterSpacing=0;startArrow=none;endArrow=none;rounded=0;curved=0;" parent="FbnF2qm33XC1SbRXRIoK-4" source="mTa8yyf2tj54cFKZ3vY1-8" target="mTa8yyf2tj54cFKZ3vY1-10" edge="1">
          <mxGeometry relative="1" as="geometry">
            <mxPoint x="-70" y="519" as="sourcePoint" />
          </mxGeometry>
        </mxCell>
        <mxCell id="mTa8yyf2tj54cFKZ3vY1-10" value="supprimer" style="whiteSpace=wrap;html=1;align=center;verticalAlign=middle;treeFolding=1;treeMoving=1;newEdgeStyle={&quot;edgeStyle&quot;:&quot;elbowEdgeStyle&quot;,&quot;startArrow&quot;:&quot;none&quot;,&quot;endArrow&quot;:&quot;none&quot;};" parent="FbnF2qm33XC1SbRXRIoK-4" vertex="1">
          <mxGeometry x="20" y="519" width="100" height="89" as="geometry" />
        </mxCell>
        <mxCell id="mTa8yyf2tj54cFKZ3vY1-11" value="" style="edgeStyle=elbowEdgeStyle;elbow=vertical;sourcePerimeterSpacing=0;targetPerimeterSpacing=0;startArrow=none;endArrow=none;rounded=0;curved=0;" parent="FbnF2qm33XC1SbRXRIoK-4" source="mTa8yyf2tj54cFKZ3vY1-10" target="mTa8yyf2tj54cFKZ3vY1-12" edge="1">
          <mxGeometry relative="1" as="geometry">
            <mxPoint x="-70" y="648" as="sourcePoint" />
          </mxGeometry>
        </mxCell>
        <mxCell id="mTa8yyf2tj54cFKZ3vY1-12" value="modifier" style="whiteSpace=wrap;html=1;align=center;verticalAlign=middle;treeFolding=1;treeMoving=1;newEdgeStyle={&quot;edgeStyle&quot;:&quot;elbowEdgeStyle&quot;,&quot;startArrow&quot;:&quot;none&quot;,&quot;endArrow&quot;:&quot;none&quot;};" parent="FbnF2qm33XC1SbRXRIoK-4" vertex="1">
          <mxGeometry x="20" y="648" width="100" height="89" as="geometry" />
        </mxCell>
        <mxCell id="mTa8yyf2tj54cFKZ3vY1-13" value="" style="edgeStyle=elbowEdgeStyle;elbow=vertical;sourcePerimeterSpacing=0;targetPerimeterSpacing=0;startArrow=none;endArrow=none;rounded=0;curved=0;" parent="FbnF2qm33XC1SbRXRIoK-4" source="GBSJzxvQuTlD-Dh8xCkO-29" target="mTa8yyf2tj54cFKZ3vY1-14" edge="1">
          <mxGeometry relative="1" as="geometry">
            <mxPoint x="450" y="400" as="sourcePoint" />
          </mxGeometry>
        </mxCell>
        <mxCell id="mTa8yyf2tj54cFKZ3vY1-14" value="&lt;div&gt;envoyer des rappels pour l échéances&lt;/div&gt;" style="whiteSpace=wrap;html=1;align=center;verticalAlign=middle;treeFolding=1;treeMoving=1;newEdgeStyle={&quot;edgeStyle&quot;:&quot;elbowEdgeStyle&quot;,&quot;startArrow&quot;:&quot;none&quot;,&quot;endArrow&quot;:&quot;none&quot;};" parent="FbnF2qm33XC1SbRXRIoK-4" vertex="1">
          <mxGeometry x="330" y="390" width="100" height="90" as="geometry" />
        </mxCell>
        <mxCell id="mTa8yyf2tj54cFKZ3vY1-15" value="" style="edgeStyle=elbowEdgeStyle;elbow=vertical;sourcePerimeterSpacing=0;targetPerimeterSpacing=0;startArrow=none;endArrow=none;rounded=0;curved=0;" parent="FbnF2qm33XC1SbRXRIoK-4" source="mTa8yyf2tj54cFKZ3vY1-14" target="mTa8yyf2tj54cFKZ3vY1-16" edge="1">
          <mxGeometry relative="1" as="geometry">
            <mxPoint x="240" y="519" as="sourcePoint" />
          </mxGeometry>
        </mxCell>
        <mxCell id="mTa8yyf2tj54cFKZ3vY1-16" value="&lt;div&gt;envoyé un mail de rappels&lt;/div&gt;" style="whiteSpace=wrap;html=1;align=center;verticalAlign=middle;treeFolding=1;treeMoving=1;newEdgeStyle={&quot;edgeStyle&quot;:&quot;elbowEdgeStyle&quot;,&quot;startArrow&quot;:&quot;none&quot;,&quot;endArrow&quot;:&quot;none&quot;};" parent="FbnF2qm33XC1SbRXRIoK-4" vertex="1">
          <mxGeometry x="330" y="520" width="100" height="90" as="geometry" />
        </mxCell>
        <mxCell id="mTa8yyf2tj54cFKZ3vY1-17" value="" style="edgeStyle=elbowEdgeStyle;elbow=vertical;sourcePerimeterSpacing=0;targetPerimeterSpacing=0;startArrow=none;endArrow=none;rounded=0;curved=0;" parent="FbnF2qm33XC1SbRXRIoK-4" source="GBSJzxvQuTlD-Dh8xCkO-31" target="mTa8yyf2tj54cFKZ3vY1-18" edge="1">
          <mxGeometry relative="1" as="geometry">
            <mxPoint x="450" y="400" as="sourcePoint" />
          </mxGeometry>
        </mxCell>
        <mxCell id="mTa8yyf2tj54cFKZ3vY1-18" value="&lt;div&gt;gérer des priorités&lt;/div&gt;" style="whiteSpace=wrap;html=1;align=center;verticalAlign=middle;treeFolding=1;treeMoving=1;newEdgeStyle={&quot;edgeStyle&quot;:&quot;elbowEdgeStyle&quot;,&quot;startArrow&quot;:&quot;none&quot;,&quot;endArrow&quot;:&quot;none&quot;};" parent="FbnF2qm33XC1SbRXRIoK-4" vertex="1">
          <mxGeometry x="460" y="390" width="100" height="89" as="geometry" />
        </mxCell>
        <mxCell id="mTa8yyf2tj54cFKZ3vY1-19" value="" style="edgeStyle=elbowEdgeStyle;elbow=vertical;sourcePerimeterSpacing=0;targetPerimeterSpacing=0;startArrow=none;endArrow=none;rounded=0;curved=0;" parent="FbnF2qm33XC1SbRXRIoK-4" source="GBSJzxvQuTlD-Dh8xCkO-33" target="mTa8yyf2tj54cFKZ3vY1-20" edge="1">
          <mxGeometry relative="1" as="geometry">
            <mxPoint x="450" y="400" as="sourcePoint" />
          </mxGeometry>
        </mxCell>
        <mxCell id="mTa8yyf2tj54cFKZ3vY1-20" value="envoyé des notifications aux utilisateurs" style="whiteSpace=wrap;html=1;align=center;verticalAlign=middle;treeFolding=1;treeMoving=1;newEdgeStyle={&quot;edgeStyle&quot;:&quot;elbowEdgeStyle&quot;,&quot;startArrow&quot;:&quot;none&quot;,&quot;endArrow&quot;:&quot;none&quot;};direction=west;" parent="FbnF2qm33XC1SbRXRIoK-4" vertex="1">
          <mxGeometry x="590" y="390" width="100" height="89" as="geometry" />
        </mxCell>
        <mxCell id="mTa8yyf2tj54cFKZ3vY1-21" value="" style="edgeStyle=elbowEdgeStyle;elbow=vertical;sourcePerimeterSpacing=0;targetPerimeterSpacing=0;startArrow=none;endArrow=none;rounded=0;curved=0;" parent="FbnF2qm33XC1SbRXRIoK-4" source="GBSJzxvQuTlD-Dh8xCkO-35" target="mTa8yyf2tj54cFKZ3vY1-22" edge="1">
          <mxGeometry relative="1" as="geometry">
            <mxPoint x="450" y="400" as="sourcePoint" />
          </mxGeometry>
        </mxCell>
        <mxCell id="mTa8yyf2tj54cFKZ3vY1-22" value="gérer le projet" style="whiteSpace=wrap;html=1;align=center;verticalAlign=middle;treeFolding=1;treeMoving=1;newEdgeStyle={&quot;edgeStyle&quot;:&quot;elbowEdgeStyle&quot;,&quot;startArrow&quot;:&quot;none&quot;,&quot;endArrow&quot;:&quot;none&quot;};" parent="FbnF2qm33XC1SbRXRIoK-4" vertex="1">
          <mxGeometry x="710" y="390" width="100" height="89" as="geometry" />
        </mxCell>
        <mxCell id="b81TM9QX_g5SMCFbErk2-1" value="" style="edgeStyle=elbowEdgeStyle;elbow=vertical;sourcePerimeterSpacing=0;targetPerimeterSpacing=0;startArrow=none;endArrow=none;rounded=0;curved=0;" parent="FbnF2qm33XC1SbRXRIoK-4" source="FbnF2qm33XC1SbRXRIoK-8" target="b81TM9QX_g5SMCFbErk2-2" edge="1">
          <mxGeometry relative="1" as="geometry">
            <mxPoint x="450" y="400" as="sourcePoint" />
          </mxGeometry>
        </mxCell>
        <mxCell id="b81TM9QX_g5SMCFbErk2-2" value="Créer un profil" style="whiteSpace=wrap;html=1;align=center;verticalAlign=middle;treeFolding=1;treeMoving=1;newEdgeStyle={&quot;edgeStyle&quot;:&quot;elbowEdgeStyle&quot;,&quot;startArrow&quot;:&quot;none&quot;,&quot;endArrow&quot;:&quot;none&quot;};" parent="FbnF2qm33XC1SbRXRIoK-4" vertex="1">
          <mxGeometry x="940" y="260" width="110" height="90" as="geometry" />
        </mxCell>
        <mxCell id="b81TM9QX_g5SMCFbErk2-3" value="" style="edgeStyle=elbowEdgeStyle;elbow=vertical;sourcePerimeterSpacing=0;targetPerimeterSpacing=0;startArrow=none;endArrow=none;rounded=0;curved=0;" parent="FbnF2qm33XC1SbRXRIoK-4" source="b81TM9QX_g5SMCFbErk2-2" target="b81TM9QX_g5SMCFbErk2-4" edge="1">
          <mxGeometry relative="1" as="geometry">
            <mxPoint x="450" y="400" as="sourcePoint" />
          </mxGeometry>
        </mxCell>
        <mxCell id="b81TM9QX_g5SMCFbErk2-4" value="se connecter" style="whiteSpace=wrap;html=1;align=center;verticalAlign=middle;treeFolding=1;treeMoving=1;newEdgeStyle={&quot;edgeStyle&quot;:&quot;elbowEdgeStyle&quot;,&quot;startArrow&quot;:&quot;none&quot;,&quot;endArrow&quot;:&quot;none&quot;};" parent="FbnF2qm33XC1SbRXRIoK-4" vertex="1">
          <mxGeometry x="940" y="390" width="110" height="90" as="geometry" />
        </mxCell>
        <mxCell id="b81TM9QX_g5SMCFbErk2-5" value="" style="edgeStyle=elbowEdgeStyle;elbow=vertical;sourcePerimeterSpacing=0;targetPerimeterSpacing=0;startArrow=none;endArrow=none;rounded=0;curved=0;" parent="FbnF2qm33XC1SbRXRIoK-4" source="b81TM9QX_g5SMCFbErk2-4" target="b81TM9QX_g5SMCFbErk2-6" edge="1">
          <mxGeometry relative="1" as="geometry">
            <mxPoint x="855" y="519" as="sourcePoint" />
          </mxGeometry>
        </mxCell>
        <mxCell id="b81TM9QX_g5SMCFbErk2-6" value="se déconnecter" style="whiteSpace=wrap;html=1;align=center;verticalAlign=middle;treeFolding=1;treeMoving=1;newEdgeStyle={&quot;edgeStyle&quot;:&quot;elbowEdgeStyle&quot;,&quot;startArrow&quot;:&quot;none&quot;,&quot;endArrow&quot;:&quot;none&quot;};" parent="FbnF2qm33XC1SbRXRIoK-4" vertex="1">
          <mxGeometry x="940" y="520" width="110" height="90" as="geometry" />
        </mxCell>
      </root>
    </mxGraphModel>
  </diagram>
  <diagram id="KeYFdJalkDHxsRPOkHfY" name="en equipes">
    <mxGraphModel dx="1584" dy="492" grid="1" gridSize="10" guides="1" tooltips="1" connect="1" arrows="1" fold="1" page="1" pageScale="1" pageWidth="827" pageHeight="1169" math="0" shadow="0">
      <root>
        <mxCell id="0" />
        <mxCell id="1" parent="0" />
        <mxCell id="7dcN_Za3HMUKD1tqZbd0-1" value="" style="swimlane;startSize=20;horizontal=1;containerType=tree;newEdgeStyle={&quot;edgeStyle&quot;:&quot;elbowEdgeStyle&quot;,&quot;startArrow&quot;:&quot;none&quot;,&quot;endArrow&quot;:&quot;none&quot;};" parent="1" vertex="1">
          <mxGeometry x="-120" y="150" width="1180" height="1000" as="geometry" />
        </mxCell>
        <mxCell id="7dcN_Za3HMUKD1tqZbd0-2" value="" style="edgeStyle=elbowEdgeStyle;elbow=vertical;sourcePerimeterSpacing=0;targetPerimeterSpacing=0;startArrow=none;endArrow=none;rounded=0;curved=0;" parent="7dcN_Za3HMUKD1tqZbd0-1" source="7dcN_Za3HMUKD1tqZbd0-26" target="7dcN_Za3HMUKD1tqZbd0-4" edge="1">
          <mxGeometry relative="1" as="geometry" />
        </mxCell>
        <UserObject label="Client" treeRoot="1" id="7dcN_Za3HMUKD1tqZbd0-3">
          <mxCell style="whiteSpace=wrap;html=1;align=center;treeFolding=1;treeMoving=1;newEdgeStyle={&quot;edgeStyle&quot;:&quot;elbowEdgeStyle&quot;,&quot;startArrow&quot;:&quot;none&quot;,&quot;endArrow&quot;:&quot;none&quot;};" parent="7dcN_Za3HMUKD1tqZbd0-1" vertex="1">
            <mxGeometry x="530" y="50" width="120" height="60" as="geometry" />
          </mxCell>
        </UserObject>
        <mxCell id="7dcN_Za3HMUKD1tqZbd0-4" value="membre d&#39;une équipes" style="whiteSpace=wrap;html=1;align=center;verticalAlign=middle;treeFolding=1;treeMoving=1;newEdgeStyle={&quot;edgeStyle&quot;:&quot;elbowEdgeStyle&quot;,&quot;startArrow&quot;:&quot;none&quot;,&quot;endArrow&quot;:&quot;none&quot;};" parent="7dcN_Za3HMUKD1tqZbd0-1" vertex="1">
          <mxGeometry x="540" y="201" width="100" height="60" as="geometry" />
        </mxCell>
        <mxCell id="7dcN_Za3HMUKD1tqZbd0-5" value="" style="edgeStyle=elbowEdgeStyle;elbow=vertical;sourcePerimeterSpacing=0;targetPerimeterSpacing=0;startArrow=none;endArrow=none;rounded=0;curved=0;" parent="7dcN_Za3HMUKD1tqZbd0-1" source="7dcN_Za3HMUKD1tqZbd0-4" target="7dcN_Za3HMUKD1tqZbd0-6" edge="1">
          <mxGeometry relative="1" as="geometry">
            <mxPoint x="410" y="220" as="sourcePoint" />
          </mxGeometry>
        </mxCell>
        <mxCell id="7dcN_Za3HMUKD1tqZbd0-6" value="Crée un projet" style="whiteSpace=wrap;html=1;align=center;verticalAlign=middle;treeFolding=1;treeMoving=1;newEdgeStyle={&quot;edgeStyle&quot;:&quot;elbowEdgeStyle&quot;,&quot;startArrow&quot;:&quot;none&quot;,&quot;endArrow&quot;:&quot;none&quot;};" parent="7dcN_Za3HMUKD1tqZbd0-1" vertex="1">
          <mxGeometry x="20" y="370" width="100" height="89" as="geometry" />
        </mxCell>
        <mxCell id="7dcN_Za3HMUKD1tqZbd0-7" value="" style="shape=umlActor;verticalLabelPosition=bottom;verticalAlign=top;html=1;outlineConnect=0;" parent="7dcN_Za3HMUKD1tqZbd0-1" vertex="1">
          <mxGeometry x="570" y="-10" width="30" height="60" as="geometry" />
        </mxCell>
        <mxCell id="7dcN_Za3HMUKD1tqZbd0-8" style="edgeStyle=elbowEdgeStyle;rounded=0;orthogonalLoop=1;jettySize=auto;html=1;startArrow=none;endArrow=none;" parent="7dcN_Za3HMUKD1tqZbd0-1" edge="1">
          <mxGeometry relative="1" as="geometry">
            <mxPoint x="180" y="820" as="targetPoint" />
            <mxPoint x="180.41176470588243" y="820" as="sourcePoint" />
          </mxGeometry>
        </mxCell>
        <mxCell id="7dcN_Za3HMUKD1tqZbd0-9" value="" style="edgeStyle=elbowEdgeStyle;elbow=vertical;sourcePerimeterSpacing=0;targetPerimeterSpacing=0;startArrow=none;endArrow=none;rounded=0;curved=0;" parent="7dcN_Za3HMUKD1tqZbd0-1" source="7dcN_Za3HMUKD1tqZbd0-4" target="7dcN_Za3HMUKD1tqZbd0-10" edge="1">
          <mxGeometry relative="1" as="geometry">
            <mxPoint x="350" y="300" as="sourcePoint" />
          </mxGeometry>
        </mxCell>
        <mxCell id="7dcN_Za3HMUKD1tqZbd0-10" value="&lt;div&gt;Définitions des ressources pour la réalisation du projet&lt;/div&gt;&lt;div&gt;&lt;br&gt;&lt;/div&gt;" style="whiteSpace=wrap;html=1;align=center;verticalAlign=middle;treeFolding=1;treeMoving=1;newEdgeStyle={&quot;edgeStyle&quot;:&quot;elbowEdgeStyle&quot;,&quot;startArrow&quot;:&quot;none&quot;,&quot;endArrow&quot;:&quot;none&quot;};" parent="7dcN_Za3HMUKD1tqZbd0-1" vertex="1">
          <mxGeometry x="160" y="371" width="100" height="89" as="geometry" />
        </mxCell>
        <mxCell id="7dcN_Za3HMUKD1tqZbd0-11" value="" style="edgeStyle=elbowEdgeStyle;elbow=vertical;sourcePerimeterSpacing=0;targetPerimeterSpacing=0;startArrow=none;endArrow=none;rounded=0;curved=0;" parent="7dcN_Za3HMUKD1tqZbd0-1" source="7dcN_Za3HMUKD1tqZbd0-4" target="7dcN_Za3HMUKD1tqZbd0-12" edge="1">
          <mxGeometry relative="1" as="geometry">
            <mxPoint x="350" y="300" as="sourcePoint" />
          </mxGeometry>
        </mxCell>
        <mxCell id="7dcN_Za3HMUKD1tqZbd0-12" value="&lt;div&gt;définitions de l&#39;échéaces&lt;/div&gt;&lt;div&gt;&lt;br&gt;&lt;/div&gt;" style="whiteSpace=wrap;html=1;align=center;verticalAlign=middle;treeFolding=1;treeMoving=1;newEdgeStyle={&quot;edgeStyle&quot;:&quot;elbowEdgeStyle&quot;,&quot;startArrow&quot;:&quot;none&quot;,&quot;endArrow&quot;:&quot;none&quot;};" parent="7dcN_Za3HMUKD1tqZbd0-1" vertex="1">
          <mxGeometry x="330" y="370.5" width="100" height="90" as="geometry" />
        </mxCell>
        <mxCell id="7dcN_Za3HMUKD1tqZbd0-13" value="" style="edgeStyle=elbowEdgeStyle;elbow=vertical;sourcePerimeterSpacing=0;targetPerimeterSpacing=0;startArrow=none;endArrow=none;rounded=0;curved=0;" parent="7dcN_Za3HMUKD1tqZbd0-1" source="7dcN_Za3HMUKD1tqZbd0-4" target="7dcN_Za3HMUKD1tqZbd0-14" edge="1">
          <mxGeometry relative="1" as="geometry">
            <mxPoint x="350" y="300" as="sourcePoint" />
          </mxGeometry>
        </mxCell>
        <mxCell id="7dcN_Za3HMUKD1tqZbd0-14" value="&lt;div&gt;définitions des prioritées&lt;/div&gt;&lt;div&gt;&lt;br&gt;&lt;/div&gt;" style="whiteSpace=wrap;html=1;align=center;verticalAlign=middle;treeFolding=1;treeMoving=1;newEdgeStyle={&quot;edgeStyle&quot;:&quot;elbowEdgeStyle&quot;,&quot;startArrow&quot;:&quot;none&quot;,&quot;endArrow&quot;:&quot;none&quot;};" parent="7dcN_Za3HMUKD1tqZbd0-1" vertex="1">
          <mxGeometry x="460" y="371" width="100" height="89" as="geometry" />
        </mxCell>
        <mxCell id="7dcN_Za3HMUKD1tqZbd0-15" value="" style="edgeStyle=elbowEdgeStyle;elbow=vertical;sourcePerimeterSpacing=0;targetPerimeterSpacing=0;startArrow=none;endArrow=none;rounded=0;curved=0;" parent="7dcN_Za3HMUKD1tqZbd0-1" source="7dcN_Za3HMUKD1tqZbd0-4" target="7dcN_Za3HMUKD1tqZbd0-16" edge="1">
          <mxGeometry relative="1" as="geometry">
            <mxPoint x="350" y="300" as="sourcePoint" />
          </mxGeometry>
        </mxCell>
        <mxCell id="7dcN_Za3HMUKD1tqZbd0-16" value="&lt;div&gt;Creations des taches&lt;/div&gt;&lt;div&gt;&lt;br&gt;&lt;/div&gt;" style="whiteSpace=wrap;html=1;align=center;verticalAlign=middle;treeFolding=1;treeMoving=1;newEdgeStyle={&quot;edgeStyle&quot;:&quot;elbowEdgeStyle&quot;,&quot;startArrow&quot;:&quot;none&quot;,&quot;endArrow&quot;:&quot;none&quot;};direction=west;" parent="7dcN_Za3HMUKD1tqZbd0-1" vertex="1">
          <mxGeometry x="580" y="371" width="100" height="89" as="geometry" />
        </mxCell>
        <mxCell id="7dcN_Za3HMUKD1tqZbd0-17" value="" style="edgeStyle=elbowEdgeStyle;elbow=vertical;sourcePerimeterSpacing=0;targetPerimeterSpacing=0;startArrow=none;endArrow=none;rounded=0;curved=0;" parent="7dcN_Za3HMUKD1tqZbd0-1" source="7dcN_Za3HMUKD1tqZbd0-4" target="7dcN_Za3HMUKD1tqZbd0-18" edge="1">
          <mxGeometry relative="1" as="geometry">
            <mxPoint x="350" y="300" as="sourcePoint" />
          </mxGeometry>
        </mxCell>
        <mxCell id="7dcN_Za3HMUKD1tqZbd0-18" value="Créations des sous taches" style="whiteSpace=wrap;html=1;align=center;verticalAlign=middle;treeFolding=1;treeMoving=1;newEdgeStyle={&quot;edgeStyle&quot;:&quot;elbowEdgeStyle&quot;,&quot;startArrow&quot;:&quot;none&quot;,&quot;endArrow&quot;:&quot;none&quot;};" parent="7dcN_Za3HMUKD1tqZbd0-1" vertex="1">
          <mxGeometry x="740" y="370.5" width="100" height="89" as="geometry" />
        </mxCell>
        <mxCell id="7dcN_Za3HMUKD1tqZbd0-19" value="" style="edgeStyle=elbowEdgeStyle;elbow=vertical;sourcePerimeterSpacing=0;targetPerimeterSpacing=0;startArrow=none;endArrow=none;rounded=0;curved=0;" parent="7dcN_Za3HMUKD1tqZbd0-1" source="7dcN_Za3HMUKD1tqZbd0-4" target="7dcN_Za3HMUKD1tqZbd0-20" edge="1">
          <mxGeometry relative="1" as="geometry">
            <mxPoint x="340" y="290" as="sourcePoint" />
          </mxGeometry>
        </mxCell>
        <mxCell id="7dcN_Za3HMUKD1tqZbd0-20" value="ajouté des notes et picèces joints" style="whiteSpace=wrap;html=1;align=center;verticalAlign=middle;treeFolding=1;treeMoving=1;newEdgeStyle={&quot;edgeStyle&quot;:&quot;elbowEdgeStyle&quot;,&quot;startArrow&quot;:&quot;none&quot;,&quot;endArrow&quot;:&quot;none&quot;};" parent="7dcN_Za3HMUKD1tqZbd0-1" vertex="1">
          <mxGeometry x="860" y="370" width="110" height="90" as="geometry" />
        </mxCell>
        <mxCell id="7dcN_Za3HMUKD1tqZbd0-21" value="" style="edgeStyle=elbowEdgeStyle;elbow=vertical;sourcePerimeterSpacing=0;targetPerimeterSpacing=0;startArrow=none;endArrow=none;rounded=0;curved=0;" parent="7dcN_Za3HMUKD1tqZbd0-1" source="7dcN_Za3HMUKD1tqZbd0-4" target="7dcN_Za3HMUKD1tqZbd0-22" edge="1">
          <mxGeometry relative="1" as="geometry">
            <mxPoint x="340" y="290" as="sourcePoint" />
          </mxGeometry>
        </mxCell>
        <mxCell id="7dcN_Za3HMUKD1tqZbd0-22" value="définitions de rappels" style="whiteSpace=wrap;html=1;align=center;verticalAlign=middle;treeFolding=1;treeMoving=1;newEdgeStyle={&quot;edgeStyle&quot;:&quot;elbowEdgeStyle&quot;,&quot;startArrow&quot;:&quot;none&quot;,&quot;endArrow&quot;:&quot;none&quot;};" parent="7dcN_Za3HMUKD1tqZbd0-1" vertex="1">
          <mxGeometry x="1010" y="370" width="100" height="90" as="geometry" />
        </mxCell>
        <mxCell id="7dcN_Za3HMUKD1tqZbd0-25" value="" style="edgeStyle=elbowEdgeStyle;elbow=vertical;sourcePerimeterSpacing=0;targetPerimeterSpacing=0;startArrow=none;endArrow=none;rounded=0;curved=0;" parent="7dcN_Za3HMUKD1tqZbd0-1" source="7dcN_Za3HMUKD1tqZbd0-3" target="7dcN_Za3HMUKD1tqZbd0-26" edge="1">
          <mxGeometry relative="1" as="geometry">
            <mxPoint x="460" y="290" as="sourcePoint" />
          </mxGeometry>
        </mxCell>
        <mxCell id="lEar4b7CNXjrfFGbo9aX-1" value="" style="edgeStyle=elbowEdgeStyle;elbow=vertical;sourcePerimeterSpacing=0;targetPerimeterSpacing=0;startArrow=none;endArrow=none;rounded=0;curved=0;" parent="7dcN_Za3HMUKD1tqZbd0-1" source="7dcN_Za3HMUKD1tqZbd0-3" target="7dcN_Za3HMUKD1tqZbd0-26" edge="1">
          <mxGeometry relative="1" as="geometry">
            <mxPoint x="470" y="260" as="sourcePoint" />
            <mxPoint x="490" y="370" as="targetPoint" />
          </mxGeometry>
        </mxCell>
        <mxCell id="7dcN_Za3HMUKD1tqZbd0-26" value="gestionnaires d&#39;équipes" style="whiteSpace=wrap;html=1;align=center;verticalAlign=middle;treeFolding=1;treeMoving=1;newEdgeStyle={&quot;edgeStyle&quot;:&quot;elbowEdgeStyle&quot;,&quot;startArrow&quot;:&quot;none&quot;,&quot;endArrow&quot;:&quot;none&quot;};" parent="7dcN_Za3HMUKD1tqZbd0-1" vertex="1">
          <mxGeometry x="540" y="130" width="100" height="60" as="geometry" />
        </mxCell>
        <mxCell id="7dcN_Za3HMUKD1tqZbd0-24" value="suivre la progression" style="whiteSpace=wrap;html=1;align=center;verticalAlign=middle;treeFolding=1;treeMoving=1;newEdgeStyle={&quot;edgeStyle&quot;:&quot;elbowEdgeStyle&quot;,&quot;startArrow&quot;:&quot;none&quot;,&quot;endArrow&quot;:&quot;none&quot;};" parent="1" vertex="1">
          <mxGeometry x="1020" y="520" width="100" height="90" as="geometry" />
        </mxCell>
        <mxCell id="7dcN_Za3HMUKD1tqZbd0-23" value="" style="edgeStyle=elbowEdgeStyle;elbow=vertical;sourcePerimeterSpacing=0;targetPerimeterSpacing=0;startArrow=none;endArrow=none;rounded=0;curved=0;" parent="1" source="7dcN_Za3HMUKD1tqZbd0-4" target="7dcN_Za3HMUKD1tqZbd0-24" edge="1">
          <mxGeometry relative="1" as="geometry">
            <mxPoint x="220" y="440" as="sourcePoint" />
          </mxGeometry>
        </mxCell>
      </root>
    </mxGraphModel>
  </diagram>
  <diagram id="JtVCrDNJpAFNXd7MGJCB" name="seul">
    <mxGraphModel dx="1682" dy="1093" grid="1" gridSize="10" guides="1" tooltips="1" connect="1" arrows="1" fold="1" page="1" pageScale="1" pageWidth="827" pageHeight="1169" math="0" shadow="0">
      <root>
        <mxCell id="0" />
        <mxCell id="1" parent="0" />
        <mxCell id="5iejaQNI3OveyeODnAKk-1" value="Membre seul" style="shape=umlActor;verticalLabelPosition=bottom;verticalAlign=top;html=1;outlineConnect=0;strokeColor=default;align=center;fontFamily=Helvetica;fontSize=12;fontColor=default;fillColor=default;" parent="1" vertex="1">
          <mxGeometry x="40" y="360" width="30" height="60" as="geometry" />
        </mxCell>
        <mxCell id="5iejaQNI3OveyeODnAKk-2" value="s&#39;inscrire" style="ellipse;whiteSpace=wrap;html=1;strokeColor=default;align=center;verticalAlign=middle;fontFamily=Helvetica;fontSize=12;fontColor=default;fillColor=default;" parent="1" vertex="1">
          <mxGeometry x="150" y="10" width="120" height="80" as="geometry" />
        </mxCell>
        <mxCell id="5iejaQNI3OveyeODnAKk-7" value="se connecter" style="ellipse;whiteSpace=wrap;html=1;strokeColor=default;align=center;verticalAlign=middle;fontFamily=Helvetica;fontSize=12;fontColor=default;fillColor=default;" parent="1" vertex="1">
          <mxGeometry x="270" y="90" width="120" height="80" as="geometry" />
        </mxCell>
        <mxCell id="5iejaQNI3OveyeODnAKk-8" value="se déconnecter" style="ellipse;whiteSpace=wrap;html=1;strokeColor=default;align=center;verticalAlign=middle;fontFamily=Helvetica;fontSize=12;fontColor=default;fillColor=default;" parent="1" vertex="1">
          <mxGeometry x="294" y="180" width="120" height="80" as="geometry" />
        </mxCell>
        <mxCell id="5iejaQNI3OveyeODnAKk-9" value="modifier profil" style="ellipse;whiteSpace=wrap;html=1;strokeColor=default;align=center;verticalAlign=middle;fontFamily=Helvetica;fontSize=12;fontColor=default;fillColor=default;" parent="1" vertex="1">
          <mxGeometry x="294" y="270" width="120" height="80" as="geometry" />
        </mxCell>
        <mxCell id="5iejaQNI3OveyeODnAKk-10" value="supprimer profil" style="ellipse;whiteSpace=wrap;html=1;strokeColor=default;align=center;verticalAlign=middle;fontFamily=Helvetica;fontSize=12;fontColor=default;fillColor=default;" parent="1" vertex="1">
          <mxGeometry x="310" y="470" width="120" height="80" as="geometry" />
        </mxCell>
        <mxCell id="5iejaQNI3OveyeODnAKk-11" value="créer projet" style="ellipse;whiteSpace=wrap;html=1;strokeColor=default;align=center;verticalAlign=middle;fontFamily=Helvetica;fontSize=12;fontColor=default;fillColor=default;" parent="1" vertex="1">
          <mxGeometry x="310" y="570" width="120" height="80" as="geometry" />
        </mxCell>
        <mxCell id="5iejaQNI3OveyeODnAKk-12" value="consulter la liste des projets" style="ellipse;whiteSpace=wrap;html=1;strokeColor=default;align=center;verticalAlign=middle;fontFamily=Helvetica;fontSize=12;fontColor=default;fillColor=default;" parent="1" vertex="1">
          <mxGeometry x="310" y="680" width="120" height="80" as="geometry" />
        </mxCell>
        <mxCell id="5iejaQNI3OveyeODnAKk-13" value="créer une taches" style="ellipse;whiteSpace=wrap;html=1;strokeColor=default;align=center;verticalAlign=middle;fontFamily=Helvetica;fontSize=12;fontColor=default;fillColor=default;" parent="1" vertex="1">
          <mxGeometry x="280" y="770" width="120" height="80" as="geometry" />
        </mxCell>
        <mxCell id="5iejaQNI3OveyeODnAKk-14" value="consulter la liste des taches" style="ellipse;whiteSpace=wrap;html=1;strokeColor=default;align=center;verticalAlign=middle;fontFamily=Helvetica;fontSize=12;fontColor=default;fillColor=default;" parent="1" vertex="1">
          <mxGeometry x="270" y="880" width="120" height="80" as="geometry" />
        </mxCell>
        <mxCell id="5iejaQNI3OveyeODnAKk-15" value="gestions du temps pour taches ou projets" style="ellipse;whiteSpace=wrap;html=1;strokeColor=default;align=center;verticalAlign=middle;fontFamily=Helvetica;fontSize=12;fontColor=default;fillColor=default;" parent="1" vertex="1">
          <mxGeometry x="190" y="960" width="120" height="80" as="geometry" />
        </mxCell>
        <mxCell id="MQlZQc-XDRk_RANbJnVK-3" value="gestions des priorités" style="ellipse;whiteSpace=wrap;html=1;strokeColor=default;align=center;verticalAlign=middle;fontFamily=Helvetica;fontSize=12;fontColor=default;fillColor=default;" parent="1" vertex="1">
          <mxGeometry x="60" y="1030" width="120" height="80" as="geometry" />
        </mxCell>
        <mxCell id="MtMy0DljiSwb_6akQj1g-3" value="gestion du compte (seul ou équipes)" style="ellipse;whiteSpace=wrap;html=1;strokeColor=default;align=center;verticalAlign=middle;fontFamily=Helvetica;fontSize=12;fontColor=default;fillColor=default;" parent="1" vertex="1">
          <mxGeometry x="300" y="370" width="120" height="80" as="geometry" />
        </mxCell>
      </root>
    </mxGraphModel>
  </diagram>
  <diagram name="equipes" id="nohgo5AO-9m50TnFwQVz">
    <mxGraphModel dx="891" dy="579" grid="1" gridSize="10" guides="1" tooltips="1" connect="1" arrows="1" fold="1" page="1" pageScale="1" pageWidth="827" pageHeight="1169" math="0" shadow="0">
      <root>
        <mxCell id="exJHIzIu7sWuJDe26AE2-0" />
        <mxCell id="exJHIzIu7sWuJDe26AE2-1" parent="exJHIzIu7sWuJDe26AE2-0" />
        <mxCell id="exJHIzIu7sWuJDe26AE2-2" value="Membre en équipes" style="shape=umlActor;verticalLabelPosition=bottom;verticalAlign=top;html=1;outlineConnect=0;strokeColor=default;align=center;fontFamily=Helvetica;fontSize=12;fontColor=default;fillColor=default;" vertex="1" parent="exJHIzIu7sWuJDe26AE2-1">
          <mxGeometry x="40" y="360" width="30" height="60" as="geometry" />
        </mxCell>
        <mxCell id="exJHIzIu7sWuJDe26AE2-3" value="s&#39;inscrire" style="ellipse;whiteSpace=wrap;html=1;strokeColor=default;align=center;verticalAlign=middle;fontFamily=Helvetica;fontSize=12;fontColor=default;fillColor=default;" vertex="1" parent="exJHIzIu7sWuJDe26AE2-1">
          <mxGeometry x="150" y="10" width="120" height="80" as="geometry" />
        </mxCell>
        <mxCell id="exJHIzIu7sWuJDe26AE2-4" value="se connecter" style="ellipse;whiteSpace=wrap;html=1;strokeColor=default;align=center;verticalAlign=middle;fontFamily=Helvetica;fontSize=12;fontColor=default;fillColor=default;" vertex="1" parent="exJHIzIu7sWuJDe26AE2-1">
          <mxGeometry x="270" y="90" width="120" height="80" as="geometry" />
        </mxCell>
        <mxCell id="exJHIzIu7sWuJDe26AE2-5" value="se déconnecter" style="ellipse;whiteSpace=wrap;html=1;strokeColor=default;align=center;verticalAlign=middle;fontFamily=Helvetica;fontSize=12;fontColor=default;fillColor=default;" vertex="1" parent="exJHIzIu7sWuJDe26AE2-1">
          <mxGeometry x="294" y="180" width="120" height="80" as="geometry" />
        </mxCell>
        <mxCell id="exJHIzIu7sWuJDe26AE2-6" value="modifier profil" style="ellipse;whiteSpace=wrap;html=1;strokeColor=default;align=center;verticalAlign=middle;fontFamily=Helvetica;fontSize=12;fontColor=default;fillColor=default;" vertex="1" parent="exJHIzIu7sWuJDe26AE2-1">
          <mxGeometry x="294" y="270" width="120" height="80" as="geometry" />
        </mxCell>
        <mxCell id="exJHIzIu7sWuJDe26AE2-7" value="supprimer profil" style="ellipse;whiteSpace=wrap;html=1;strokeColor=default;align=center;verticalAlign=middle;fontFamily=Helvetica;fontSize=12;fontColor=default;fillColor=default;" vertex="1" parent="exJHIzIu7sWuJDe26AE2-1">
          <mxGeometry x="310" y="470" width="120" height="80" as="geometry" />
        </mxCell>
        <mxCell id="exJHIzIu7sWuJDe26AE2-9" value="consulter la liste des projets" style="ellipse;whiteSpace=wrap;html=1;strokeColor=default;align=center;verticalAlign=middle;fontFamily=Helvetica;fontSize=12;fontColor=default;fillColor=default;" vertex="1" parent="exJHIzIu7sWuJDe26AE2-1">
          <mxGeometry x="310" y="585" width="120" height="80" as="geometry" />
        </mxCell>
        <mxCell id="exJHIzIu7sWuJDe26AE2-10" value="créer une taches" style="ellipse;whiteSpace=wrap;html=1;strokeColor=default;align=center;verticalAlign=middle;fontFamily=Helvetica;fontSize=12;fontColor=default;fillColor=default;" vertex="1" parent="exJHIzIu7sWuJDe26AE2-1">
          <mxGeometry x="310" y="690" width="120" height="80" as="geometry" />
        </mxCell>
        <mxCell id="exJHIzIu7sWuJDe26AE2-11" value="consulter la liste des taches" style="ellipse;whiteSpace=wrap;html=1;strokeColor=default;align=center;verticalAlign=middle;fontFamily=Helvetica;fontSize=12;fontColor=default;fillColor=default;" vertex="1" parent="exJHIzIu7sWuJDe26AE2-1">
          <mxGeometry x="300" y="790" width="120" height="80" as="geometry" />
        </mxCell>
        <mxCell id="exJHIzIu7sWuJDe26AE2-12" value="gestions du temps pour taches&lt;div&gt;&lt;br&gt;&lt;/div&gt;" style="ellipse;whiteSpace=wrap;html=1;strokeColor=default;align=center;verticalAlign=middle;fontFamily=Helvetica;fontSize=12;fontColor=default;fillColor=default;" vertex="1" parent="exJHIzIu7sWuJDe26AE2-1">
          <mxGeometry x="280" y="890" width="120" height="80" as="geometry" />
        </mxCell>
        <mxCell id="exJHIzIu7sWuJDe26AE2-13" value="gestions des priorités" style="ellipse;whiteSpace=wrap;html=1;strokeColor=default;align=center;verticalAlign=middle;fontFamily=Helvetica;fontSize=12;fontColor=default;fillColor=default;" vertex="1" parent="exJHIzIu7sWuJDe26AE2-1">
          <mxGeometry x="690" y="1050" width="120" height="80" as="geometry" />
        </mxCell>
        <mxCell id="exJHIzIu7sWuJDe26AE2-14" value="gestion du compte (seul ou équipes)" style="ellipse;whiteSpace=wrap;html=1;strokeColor=default;align=center;verticalAlign=middle;fontFamily=Helvetica;fontSize=12;fontColor=default;fillColor=default;" vertex="1" parent="exJHIzIu7sWuJDe26AE2-1">
          <mxGeometry x="300" y="370" width="120" height="80" as="geometry" />
        </mxCell>
        <mxCell id="MFAe35l0t8nCEvwlsRJd-0" value="s&#39;inscrire" style="ellipse;whiteSpace=wrap;html=1;strokeColor=default;align=center;verticalAlign=middle;fontFamily=Helvetica;fontSize=12;fontColor=default;fillColor=default;" vertex="1" parent="exJHIzIu7sWuJDe26AE2-1">
          <mxGeometry x="590" y="10" width="120" height="80" as="geometry" />
        </mxCell>
        <mxCell id="MFAe35l0t8nCEvwlsRJd-2" value="se connecter" style="ellipse;whiteSpace=wrap;html=1;strokeColor=default;align=center;verticalAlign=middle;fontFamily=Helvetica;fontSize=12;fontColor=default;fillColor=default;" vertex="1" parent="exJHIzIu7sWuJDe26AE2-1">
          <mxGeometry x="590" y="100" width="120" height="80" as="geometry" />
        </mxCell>
        <mxCell id="MFAe35l0t8nCEvwlsRJd-5" value="se déconnecter" style="ellipse;whiteSpace=wrap;html=1;strokeColor=default;align=center;verticalAlign=middle;fontFamily=Helvetica;fontSize=12;fontColor=default;fillColor=default;" vertex="1" parent="exJHIzIu7sWuJDe26AE2-1">
          <mxGeometry x="590" y="200" width="120" height="80" as="geometry" />
        </mxCell>
        <mxCell id="MFAe35l0t8nCEvwlsRJd-6" value="modifier son profil" style="ellipse;whiteSpace=wrap;html=1;strokeColor=default;align=center;verticalAlign=middle;fontFamily=Helvetica;fontSize=12;fontColor=default;fillColor=default;" vertex="1" parent="exJHIzIu7sWuJDe26AE2-1">
          <mxGeometry x="590" y="290" width="120" height="80" as="geometry" />
        </mxCell>
        <mxCell id="MFAe35l0t8nCEvwlsRJd-7" value="gestion du compte&amp;nbsp; équipes" style="ellipse;whiteSpace=wrap;html=1;strokeColor=default;align=center;verticalAlign=middle;fontFamily=Helvetica;fontSize=12;fontColor=default;fillColor=default;" vertex="1" parent="exJHIzIu7sWuJDe26AE2-1">
          <mxGeometry x="590" y="381" width="120" height="80" as="geometry" />
        </mxCell>
        <mxCell id="MFAe35l0t8nCEvwlsRJd-8" value="supprimer profil /membre équipes" style="ellipse;whiteSpace=wrap;html=1;strokeColor=default;align=center;verticalAlign=middle;fontFamily=Helvetica;fontSize=12;fontColor=default;fillColor=default;" vertex="1" parent="exJHIzIu7sWuJDe26AE2-1">
          <mxGeometry x="590" y="480" width="120" height="80" as="geometry" />
        </mxCell>
        <mxCell id="MFAe35l0t8nCEvwlsRJd-9" value="créer projet" style="ellipse;whiteSpace=wrap;html=1;strokeColor=default;align=center;verticalAlign=middle;fontFamily=Helvetica;fontSize=12;fontColor=default;fillColor=default;" vertex="1" parent="exJHIzIu7sWuJDe26AE2-1">
          <mxGeometry x="590" y="570" width="120" height="80" as="geometry" />
        </mxCell>
        <mxCell id="MFAe35l0t8nCEvwlsRJd-10" value="consulter la liste des projets" style="ellipse;whiteSpace=wrap;html=1;strokeColor=default;align=center;verticalAlign=middle;fontFamily=Helvetica;fontSize=12;fontColor=default;fillColor=default;" vertex="1" parent="exJHIzIu7sWuJDe26AE2-1">
          <mxGeometry x="590" y="680" width="120" height="80" as="geometry" />
        </mxCell>
        <mxCell id="MFAe35l0t8nCEvwlsRJd-11" value="créer une taches" style="ellipse;whiteSpace=wrap;html=1;strokeColor=default;align=center;verticalAlign=middle;fontFamily=Helvetica;fontSize=12;fontColor=default;fillColor=default;" vertex="1" parent="exJHIzIu7sWuJDe26AE2-1">
          <mxGeometry x="580" y="780" width="120" height="80" as="geometry" />
        </mxCell>
        <mxCell id="MFAe35l0t8nCEvwlsRJd-12" value="consulter la liste des taches" style="ellipse;whiteSpace=wrap;html=1;strokeColor=default;align=center;verticalAlign=middle;fontFamily=Helvetica;fontSize=12;fontColor=default;fillColor=default;" vertex="1" parent="exJHIzIu7sWuJDe26AE2-1">
          <mxGeometry x="580" y="880" width="120" height="80" as="geometry" />
        </mxCell>
        <mxCell id="MFAe35l0t8nCEvwlsRJd-13" value="gestions du temps pour taches ou projets" style="ellipse;whiteSpace=wrap;html=1;strokeColor=default;align=center;verticalAlign=middle;fontFamily=Helvetica;fontSize=12;fontColor=default;fillColor=default;" vertex="1" parent="exJHIzIu7sWuJDe26AE2-1">
          <mxGeometry x="600" y="970" width="120" height="80" as="geometry" />
        </mxCell>
        <mxCell id="MFAe35l0t8nCEvwlsRJd-14" value="Team Leader" style="shape=umlActor;verticalLabelPosition=bottom;verticalAlign=top;html=1;outlineConnect=0;strokeColor=default;align=center;fontFamily=Helvetica;fontSize=12;fontColor=default;fillColor=default;" vertex="1" parent="exJHIzIu7sWuJDe26AE2-1">
          <mxGeometry x="770" y="340" width="30" height="60" as="geometry" />
        </mxCell>
      </root>
    </mxGraphModel>
  </diagram>
  <diagram name="partie admin" id="B-qSfrOipTjP1Ll-Wm97">
    <mxGraphModel dx="946" dy="615" grid="1" gridSize="10" guides="1" tooltips="1" connect="1" arrows="1" fold="1" page="1" pageScale="1" pageWidth="827" pageHeight="1169" math="0" shadow="0">
      <root>
        <mxCell id="0VZ-OgmzdSurpvVgmi05-0" />
        <mxCell id="0VZ-OgmzdSurpvVgmi05-1" parent="0VZ-OgmzdSurpvVgmi05-0" />
        <mxCell id="0VZ-OgmzdSurpvVgmi05-2" value="Membre seul" style="shape=umlActor;verticalLabelPosition=bottom;verticalAlign=top;html=1;outlineConnect=0;strokeColor=default;align=center;fontFamily=Helvetica;fontSize=12;fontColor=default;fillColor=default;" parent="0VZ-OgmzdSurpvVgmi05-1" vertex="1">
          <mxGeometry x="40" y="360" width="30" height="60" as="geometry" />
        </mxCell>
        <mxCell id="0VZ-OgmzdSurpvVgmi05-3" value="s&#39;inscrire" style="ellipse;whiteSpace=wrap;html=1;strokeColor=default;align=center;verticalAlign=middle;fontFamily=Helvetica;fontSize=12;fontColor=default;fillColor=default;" parent="0VZ-OgmzdSurpvVgmi05-1" vertex="1">
          <mxGeometry x="150" y="10" width="120" height="80" as="geometry" />
        </mxCell>
        <mxCell id="0VZ-OgmzdSurpvVgmi05-4" value="se connecter" style="ellipse;whiteSpace=wrap;html=1;strokeColor=default;align=center;verticalAlign=middle;fontFamily=Helvetica;fontSize=12;fontColor=default;fillColor=default;" parent="0VZ-OgmzdSurpvVgmi05-1" vertex="1">
          <mxGeometry x="270" y="90" width="120" height="80" as="geometry" />
        </mxCell>
        <mxCell id="0VZ-OgmzdSurpvVgmi05-5" value="se déconnecter" style="ellipse;whiteSpace=wrap;html=1;strokeColor=default;align=center;verticalAlign=middle;fontFamily=Helvetica;fontSize=12;fontColor=default;fillColor=default;" parent="0VZ-OgmzdSurpvVgmi05-1" vertex="1">
          <mxGeometry x="280" y="190" width="120" height="80" as="geometry" />
        </mxCell>
        <mxCell id="0VZ-OgmzdSurpvVgmi05-6" value="modifier profil" style="ellipse;whiteSpace=wrap;html=1;strokeColor=default;align=center;verticalAlign=middle;fontFamily=Helvetica;fontSize=12;fontColor=default;fillColor=default;" parent="0VZ-OgmzdSurpvVgmi05-1" vertex="1">
          <mxGeometry x="294" y="270" width="120" height="80" as="geometry" />
        </mxCell>
        <mxCell id="0VZ-OgmzdSurpvVgmi05-7" value="supprimer profil" style="ellipse;whiteSpace=wrap;html=1;strokeColor=default;align=center;verticalAlign=middle;fontFamily=Helvetica;fontSize=12;fontColor=default;fillColor=default;" parent="0VZ-OgmzdSurpvVgmi05-1" vertex="1">
          <mxGeometry x="320" y="490" width="120" height="80" as="geometry" />
        </mxCell>
        <mxCell id="0VZ-OgmzdSurpvVgmi05-8" value="Créer /modifier un projet" style="ellipse;whiteSpace=wrap;html=1;strokeColor=default;align=center;verticalAlign=middle;fontFamily=Helvetica;fontSize=12;fontColor=default;fillColor=default;" parent="0VZ-OgmzdSurpvVgmi05-1" vertex="1">
          <mxGeometry x="320" y="590" width="120" height="80" as="geometry" />
        </mxCell>
        <mxCell id="0VZ-OgmzdSurpvVgmi05-9" value="consulter la liste des projets" style="ellipse;whiteSpace=wrap;html=1;strokeColor=default;align=center;verticalAlign=middle;fontFamily=Helvetica;fontSize=12;fontColor=default;fillColor=default;" parent="0VZ-OgmzdSurpvVgmi05-1" vertex="1">
          <mxGeometry x="310" y="680" width="120" height="80" as="geometry" />
        </mxCell>
        <mxCell id="0VZ-OgmzdSurpvVgmi05-10" value="créer&amp;nbsp; /modifier une taches" style="ellipse;whiteSpace=wrap;html=1;strokeColor=default;align=center;verticalAlign=middle;fontFamily=Helvetica;fontSize=12;fontColor=default;fillColor=default;" parent="0VZ-OgmzdSurpvVgmi05-1" vertex="1">
          <mxGeometry x="280" y="770" width="120" height="80" as="geometry" />
        </mxCell>
        <mxCell id="0VZ-OgmzdSurpvVgmi05-11" value="consulter la liste des taches" style="ellipse;whiteSpace=wrap;html=1;strokeColor=default;align=center;verticalAlign=middle;fontFamily=Helvetica;fontSize=12;fontColor=default;fillColor=default;" parent="0VZ-OgmzdSurpvVgmi05-1" vertex="1">
          <mxGeometry x="260" y="870" width="120" height="80" as="geometry" />
        </mxCell>
        <mxCell id="0VZ-OgmzdSurpvVgmi05-12" value="gestions du temps pour taches ou projets" style="ellipse;whiteSpace=wrap;html=1;strokeColor=default;align=center;verticalAlign=middle;fontFamily=Helvetica;fontSize=12;fontColor=default;fillColor=default;" parent="0VZ-OgmzdSurpvVgmi05-1" vertex="1">
          <mxGeometry x="190" y="960" width="120" height="80" as="geometry" />
        </mxCell>
        <mxCell id="0VZ-OgmzdSurpvVgmi05-13" value="gestions des priorités" style="ellipse;whiteSpace=wrap;html=1;strokeColor=default;align=center;verticalAlign=middle;fontFamily=Helvetica;fontSize=12;fontColor=default;fillColor=default;" parent="0VZ-OgmzdSurpvVgmi05-1" vertex="1">
          <mxGeometry x="70" y="1050" width="120" height="80" as="geometry" />
        </mxCell>
        <mxCell id="0VZ-OgmzdSurpvVgmi05-14" value="gestion du compte (seul ou équipes)" style="ellipse;whiteSpace=wrap;html=1;strokeColor=default;align=center;verticalAlign=middle;fontFamily=Helvetica;fontSize=12;fontColor=default;fillColor=default;" parent="0VZ-OgmzdSurpvVgmi05-1" vertex="1">
          <mxGeometry x="300" y="370" width="120" height="80" as="geometry" />
        </mxCell>
        <mxCell id="l3A2vMThBL0KeHuLutqm-0" value="gestions des priorités" style="ellipse;whiteSpace=wrap;html=1;strokeColor=default;align=center;verticalAlign=middle;fontFamily=Helvetica;fontSize=12;fontColor=default;fillColor=default;" parent="0VZ-OgmzdSurpvVgmi05-1" vertex="1">
          <mxGeometry x="540" y="1040" width="120" height="80" as="geometry" />
        </mxCell>
        <mxCell id="l3A2vMThBL0KeHuLutqm-1" value="gestions du temps pour taches ou projets" style="ellipse;whiteSpace=wrap;html=1;strokeColor=default;align=center;verticalAlign=middle;fontFamily=Helvetica;fontSize=12;fontColor=default;fillColor=default;" parent="0VZ-OgmzdSurpvVgmi05-1" vertex="1">
          <mxGeometry x="530" y="950" width="120" height="80" as="geometry" />
        </mxCell>
        <mxCell id="l3A2vMThBL0KeHuLutqm-2" value="consulter la liste des taches" style="ellipse;whiteSpace=wrap;html=1;strokeColor=default;align=center;verticalAlign=middle;fontFamily=Helvetica;fontSize=12;fontColor=default;fillColor=default;" parent="0VZ-OgmzdSurpvVgmi05-1" vertex="1">
          <mxGeometry x="520" y="860" width="120" height="80" as="geometry" />
        </mxCell>
        <mxCell id="l3A2vMThBL0KeHuLutqm-4" value="consulter la liste des projets" style="ellipse;whiteSpace=wrap;html=1;strokeColor=default;align=center;verticalAlign=middle;fontFamily=Helvetica;fontSize=12;fontColor=default;fillColor=default;" parent="0VZ-OgmzdSurpvVgmi05-1" vertex="1">
          <mxGeometry x="530" y="650" width="120" height="80" as="geometry" />
        </mxCell>
        <mxCell id="l3A2vMThBL0KeHuLutqm-5" value="Créer/modifier/assigner&lt;div&gt;&amp;nbsp;un projet&lt;/div&gt;" style="ellipse;whiteSpace=wrap;html=1;strokeColor=default;align=center;verticalAlign=middle;fontFamily=Helvetica;fontSize=12;fontColor=default;fillColor=default;" parent="0VZ-OgmzdSurpvVgmi05-1" vertex="1">
          <mxGeometry x="510" y="560" width="140" height="80" as="geometry" />
        </mxCell>
        <mxCell id="l3A2vMThBL0KeHuLutqm-6" value="supprimer profil" style="ellipse;whiteSpace=wrap;html=1;strokeColor=default;align=center;verticalAlign=middle;fontFamily=Helvetica;fontSize=12;fontColor=default;fillColor=default;" parent="0VZ-OgmzdSurpvVgmi05-1" vertex="1">
          <mxGeometry x="500" y="460" width="120" height="80" as="geometry" />
        </mxCell>
        <mxCell id="l3A2vMThBL0KeHuLutqm-7" value="modifier profil du membre en équipes ou seul" style="ellipse;whiteSpace=wrap;html=1;strokeColor=default;align=center;verticalAlign=middle;fontFamily=Helvetica;fontSize=12;fontColor=default;fillColor=default;" parent="0VZ-OgmzdSurpvVgmi05-1" vertex="1">
          <mxGeometry x="500" y="360" width="120" height="80" as="geometry" />
        </mxCell>
        <mxCell id="l3A2vMThBL0KeHuLutqm-10" value="modifier profil admin" style="ellipse;whiteSpace=wrap;html=1;strokeColor=default;align=center;verticalAlign=middle;fontFamily=Helvetica;fontSize=12;fontColor=default;fillColor=default;" parent="0VZ-OgmzdSurpvVgmi05-1" vertex="1">
          <mxGeometry x="490" y="260" width="120" height="80" as="geometry" />
        </mxCell>
        <mxCell id="l3A2vMThBL0KeHuLutqm-11" value="se déconnecter" style="ellipse;whiteSpace=wrap;html=1;strokeColor=default;align=center;verticalAlign=middle;fontFamily=Helvetica;fontSize=12;fontColor=default;fillColor=default;" parent="0VZ-OgmzdSurpvVgmi05-1" vertex="1">
          <mxGeometry x="480" y="170" width="120" height="80" as="geometry" />
        </mxCell>
        <mxCell id="l3A2vMThBL0KeHuLutqm-12" value="se connecter" style="ellipse;whiteSpace=wrap;html=1;strokeColor=default;align=center;verticalAlign=middle;fontFamily=Helvetica;fontSize=12;fontColor=default;fillColor=default;" parent="0VZ-OgmzdSurpvVgmi05-1" vertex="1">
          <mxGeometry x="490" y="90" width="120" height="80" as="geometry" />
        </mxCell>
        <mxCell id="l3A2vMThBL0KeHuLutqm-13" value="pouvoir inscrire un membre" style="ellipse;whiteSpace=wrap;html=1;strokeColor=default;align=center;verticalAlign=middle;fontFamily=Helvetica;fontSize=12;fontColor=default;fillColor=default;" parent="0VZ-OgmzdSurpvVgmi05-1" vertex="1">
          <mxGeometry x="489" width="120" height="80" as="geometry" />
        </mxCell>
        <mxCell id="l3A2vMThBL0KeHuLutqm-14" value="modifier profil membre" style="ellipse;whiteSpace=wrap;html=1;strokeColor=default;align=center;verticalAlign=middle;fontFamily=Helvetica;fontSize=12;fontColor=default;fillColor=default;" parent="0VZ-OgmzdSurpvVgmi05-1" vertex="1">
          <mxGeometry x="640" y="260" width="120" height="80" as="geometry" />
        </mxCell>
        <mxCell id="t_L4p4Fj7MIe7q_vI5j--0" value="créer&amp;nbsp; /modifier/assigner une taches" style="ellipse;whiteSpace=wrap;html=1;strokeColor=default;align=center;verticalAlign=middle;fontFamily=Helvetica;fontSize=12;fontColor=default;fillColor=default;" parent="0VZ-OgmzdSurpvVgmi05-1" vertex="1">
          <mxGeometry x="540" y="740" width="120" height="80" as="geometry" />
        </mxCell>
      </root>
    </mxGraphModel>
  </diagram>
</mxfile>
